{
    "asset" : {
        "generator" : "Khronos glTF Blender I/O v3.2.43",
        "version" : "2.0"
    },
    "scene" : 0,
    "scenes" : [
        {
            "name" : "Scene",
            "nodes" : [
                0
            ]
        }
    ],
    "nodes" : [
        {
            "mesh" : 0,
            "name" : "TQ_ARD-node",
            "translation" : [
                0.0008115909295156598,
                -0.0048854537308216095,
                -0.011888266541063786
            ]
        }
    ],
    "materials" : [
        {
            "doubleSided" : true,
            "name" : "TQ_ARD_front",
            "pbrMetallicRoughness" : {
                "baseColorTexture" : {
                    "index" : 0
                },
                "metallicFactor" : 0,
                "roughnessFactor" : 0.5
            }
        },
        {
            "doubleSided" : true,
            "name" : "TQ_ARD_back",
            "pbrMetallicRoughness" : {
                "baseColorFactor" : [
                    0.996078372001648,
                    0.9019607901573181,
                    0.6627451181411743,
                    1
                ],
                "metallicFactor" : 0,
                "roughnessFactor" : 0.5
            }
        },
        {
            "doubleSided" : true,
            "name" : "TQ_ARD_edge",
            "pbrMetallicRoughness" : {
                "baseColorTexture" : {
                    "index" : 1
                },
                "metallicFactor" : 0,
                "roughnessFactor" : 0.5
            }
        }
    ],
    "meshes" : [
        {
            "name" : "TQ_ARD-geom",
            "primitives" : [
                {
                    "attributes" : {
                        "POSITION" : 0,
                        "NORMAL" : 1,
                        "TEXCOORD_0" : 2
                    },
                    "indices" : 3,
                    "material" : 0
                },
                {
                    "attributes" : {
                        "POSITION" : 4,
                        "NORMAL" : 5,
                        "TEXCOORD_0" : 6
                    },
                    "indices" : 7,
                    "material" : 1
                },
                {
                    "attributes" : {
                        "POSITION" : 8,
                        "NORMAL" : 9,
                        "TEXCOORD_0" : 10
                    },
                    "indices" : 11,
                    "material" : 2
                }
            ]
        }
    ],
    "textures" : [
        {
            "sampler" : 0,
            "source" : 0
        },
        {
            "sampler" : 0,
            "source" : 1
        }
    ],
    "images" : [
        {
            "bufferView" : 4,
            "mimeType" : "image/png",
            "name" : "baja-giratorio-01"
        },
        {
            "bufferView" : 13,
            "mimeType" : "image/png",
            "name" : "TQ_ARD-I1"
        }
    ],
    "accessors" : [
        {
            "bufferView" : 0,
            "componentType" : 5126,
            "count" : 1622,
            "max" : [
                0.2790876030921936,
                0.08440683782100677,
                0.11719624698162079
            ],
            "min" : [
                -0.27908796072006226,
                -0.07776869833469391,
                -0.08397883176803589
            ],
            "type" : "VEC3"
        },
        {
            "bufferView" : 1,
            "componentType" : 5126,
            "count" : 1622,
            "type" : "VEC3"
        },
        {
            "bufferView" : 2,
            "componentType" : 5126,
            "count" : 1622,
            "type" : "VEC2"
        },
        {
            "bufferView" : 3,
            "componentType" : 5123,
            "count" : 3087,
            "type" : "SCALAR"
        },
        {
            "bufferView" : 5,
            "componentType" : 5126,
            "count" : 1376,
            "max" : [
                0.27850204706192017,
                0.08281931281089783,
                0.11560873687267303
            ],
            "min" : [
                -0.2784987688064575,
                -0.07618120312690735,
                -0.0819263905286789
            ],
            "type" : "VEC3"
        },
        {
            "bufferView" : 6,
            "componentType" : 5126,
            "count" : 1376,
            "type" : "VEC3"
        },
        {
            "bufferView" : 7,
            "componentType" : 5126,
            "count" : 1376,
            "type" : "VEC2"
        },
        {
            "bufferView" : 8,
            "componentType" : 5123,
            "count" : 3087,
            "type" : "SCALAR"
        },
        {
            "bufferView" : 9,
            "componentType" : 5126,
            "count" : 2107,
            "max" : [
                0.2790876030921936,
                0.08440683782100677,
                0.11719620227813721
            ],
            "min" : [
                -0.2790879011154175,
                -0.07776869833469391,
                -0.08397874236106873
            ],
            "type" : "VEC3"
        },
        {
            "bufferView" : 10,
            "componentType" : 5126,
            "count" : 2107,
            "type" : "VEC3"
        },
        {
            "bufferView" : 11,
            "componentType" : 5126,
            "count" : 2107,
            "type" : "VEC2"
        },
        {
            "bufferView" : 12,
            "componentType" : 5123,
            "count" : 3192,
            "type" : "SCALAR"
        }
    ],
    "bufferViews" : [
        {
            "buffer" : 0,
            "byteLength" : 19464,
            "byteOffset" : 0
        },
        {
            "buffer" : 0,
            "byteLength" : 19464,
            "byteOffset" : 19464
        },
        {
            "buffer" : 0,
            "byteLength" : 12976,
            "byteOffset" : 38928
        },
        {
            "buffer" : 0,
            "byteLength" : 6174,
            "byteOffset" : 51904
        },
        {
            "buffer" : 0,
            "byteLength" : 1024139,
            "byteOffset" : 58080
        },
        {
            "buffer" : 0,
            "byteLength" : 16512,
            "byteOffset" : 1082220
        },
        {
            "buffer" : 0,
            "byteLength" : 16512,
            "byteOffset" : 1098732
        },
        {
            "buffer" : 0,
            "byteLength" : 11008,
            "byteOffset" : 1115244
        },
        {
            "buffer" : 0,
            "byteLength" : 6174,
            "byteOffset" : 1126252
        },
        {
            "buffer" : 0,
            "byteLength" : 25284,
            "byteOffset" : 1132428
        },
        {
            "buffer" : 0,
            "byteLength" : 25284,
            "byteOffset" : 1157712
        },
        {
            "buffer" : 0,
            "byteLength" : 16856,
            "byteOffset" : 1182996
        },
        {
            "buffer" : 0,
            "byteLength" : 6384,
            "byteOffset" : 1199852
        },
        {
            "buffer" : 0,
            "byteLength" : 767,
            "byteOffset" : 1206236
        }
    ],
    "samplers" : [
        {
            "magFilter" : 9729,
            "minFilter" : 9987
        }
    ],
    "buffers" : [
        {
            "byteLength" : 1207004,
            "uri" : "data:application/octet-stream;base64,"
        }
    ]
}
