{
    "asset" : {
        "generator" : "Khronos glTF Blender I/O v3.2.43",
        "version" : "2.0"
    },
    "scene" : 0,
    "scenes" : [
        {
            "name" : "Scene",
            "nodes" : [
                0
            ]
        }
    ],
    "nodes" : [
        {
            "mesh" : 0,
            "name" : "TQ_ARD-node"
        }
    ],
    "materials" : [
        {
            "doubleSided" : true,
            "name" : "TQ_ARD_front",
            "pbrMetallicRoughness" : {
                "baseColorTexture" : {
                    "index" : 0
                },
                "metallicFactor" : 0,
                "roughnessFactor" : 0.5
            }
        },
        {
            "doubleSided" : true,
            "name" : "TQ_ARD_back",
            "pbrMetallicRoughness" : {
                "baseColorFactor" : [
                    0.996078372001648,
                    0.9019607901573181,
                    0.6627451181411743,
                    1
                ],
                "metallicFactor" : 0,
                "roughnessFactor" : 0.5
            }
        },
        {
            "doubleSided" : true,
            "name" : "TQ_ARD_edge",
            "pbrMetallicRoughness" : {
                "baseColorTexture" : {
                    "index" : 1
                },
                "metallicFactor" : 0,
                "roughnessFactor" : 0.5
            }
        }
    ],
    "meshes" : [
        {
            "name" : "TQ_ARD-geom",
            "primitives" : [
                {
                    "attributes" : {
                        "POSITION" : 0,
                        "NORMAL" : 1,
                        "TEXCOORD_0" : 2
                    },
                    "indices" : 3,
                    "material" : 0
                },
                {
                    "attributes" : {
                        "POSITION" : 4,
                        "NORMAL" : 5,
                        "TEXCOORD_0" : 6
                    },
                    "indices" : 7,
                    "material" : 1
                },
                {
                    "attributes" : {
                        "POSITION" : 8,
                        "NORMAL" : 9,
                        "TEXCOORD_0" : 10
                    },
                    "indices" : 11,
                    "material" : 2
                }
            ]
        }
    ],
    "textures" : [
        {
            "sampler" : 0,
            "source" : 0
        },
        {
            "sampler" : 0,
            "source" : 1
        }
    ],
    "images" : [
        {
            "bufferView" : 4,
            "mimeType" : "image/png",
            "name" : "baja-plegable-01"
        },
        {
            "bufferView" : 13,
            "mimeType" : "image/png",
            "name" : "TQ_ARD-I1"
        }
    ],
    "accessors" : [
        {
            "bufferView" : 0,
            "componentType" : 5126,
            "count" : 1622,
            "max" : [
                0.2798991799354553,
                0.07952138781547546,
                0.10530798137187958
            ],
            "min" : [
                -0.27827638387680054,
                -0.08265414834022522,
                -0.0958670973777771
            ],
            "type" : "VEC3"
        },
        {
            "bufferView" : 1,
            "componentType" : 5126,
            "count" : 1622,
            "type" : "VEC3"
        },
        {
            "bufferView" : 2,
            "componentType" : 5126,
            "count" : 1622,
            "type" : "VEC2"
        },
        {
            "bufferView" : 3,
            "componentType" : 5123,
            "count" : 3087,
            "type" : "SCALAR"
        },
        {
            "bufferView" : 5,
            "componentType" : 5126,
            "count" : 1376,
            "max" : [
                0.2793136239051819,
                0.07793386280536652,
                0.10372047126293182
            ],
            "min" : [
                -0.2776871919631958,
                -0.08106665313243866,
                -0.0938146561384201
            ],
            "type" : "VEC3"
        },
        {
            "bufferView" : 6,
            "componentType" : 5126,
            "count" : 1376,
            "type" : "VEC3"
        },
        {
            "bufferView" : 7,
            "componentType" : 5126,
            "count" : 1376,
            "type" : "VEC2"
        },
        {
            "bufferView" : 8,
            "componentType" : 5123,
            "count" : 3087,
            "type" : "SCALAR"
        },
        {
            "bufferView" : 9,
            "componentType" : 5126,
            "count" : 2107,
            "max" : [
                0.2798991799354553,
                0.07952138781547546,
                0.105307936668396
            ],
            "min" : [
                -0.27827632427215576,
                -0.08265414834022522,
                -0.09586700797080994
            ],
            "type" : "VEC3"
        },
        {
            "bufferView" : 10,
            "componentType" : 5126,
            "count" : 2107,
            "type" : "VEC3"
        },
        {
            "bufferView" : 11,
            "componentType" : 5126,
            "count" : 2107,
            "type" : "VEC2"
        },
        {
            "bufferView" : 12,
            "componentType" : 5123,
            "count" : 3192,
            "type" : "SCALAR"
        }
    ],
    "bufferViews" : [
        {
            "buffer" : 0,
            "byteLength" : 19464,
            "byteOffset" : 0
        },
        {
            "buffer" : 0,
            "byteLength" : 19464,
            "byteOffset" : 19464
        },
        {
            "buffer" : 0,
            "byteLength" : 12976,
            "byteOffset" : 38928
        },
        {
            "buffer" : 0,
            "byteLength" : 6174,
            "byteOffset" : 51904
        },
        {
            "buffer" : 0,
            "byteLength" : 1092373,
            "byteOffset" : 58080
        },
        {
            "buffer" : 0,
            "byteLength" : 16512,
            "byteOffset" : 1150456
        },
        {
            "buffer" : 0,
            "byteLength" : 16512,
            "byteOffset" : 1166968
        },
        {
            "buffer" : 0,
            "byteLength" : 11008,
            "byteOffset" : 1183480
        },
        {
            "buffer" : 0,
            "byteLength" : 6174,
            "byteOffset" : 1194488
        },
        {
            "buffer" : 0,
            "byteLength" : 25284,
            "byteOffset" : 1200664
        },
        {
            "buffer" : 0,
            "byteLength" : 25284,
            "byteOffset" : 1225948
        },
        {
            "buffer" : 0,
            "byteLength" : 16856,
            "byteOffset" : 1251232
        },
        {
            "buffer" : 0,
            "byteLength" : 6384,
            "byteOffset" : 1268088
        },
        {
            "buffer" : 0,
            "byteLength" : 767,
            "byteOffset" : 1274472
        }
    ],
    "samplers" : [
        {
            "magFilter" : 9729,
            "minFilter" : 9987
        }
    ],
    "buffers" : [
        {
            "byteLength" : 1275240,
            "uri" : "data:application/octet-stream;base64,"
        }
    ]
}
